<?xml version="1.0" encoding="UTF-8" standalone="no"?>
<!-- Created with Inkscape (http://www.inkscape.org/) -->

<svg
   width="152.50789mm"
   height="25.200626mm"
   viewBox="0 0 152.50789 25.200626"
   version="1.1"
   id="svg1"
   xml:space="preserve"
   xmlns:inkscape="http://www.inkscape.org/namespaces/inkscape"
   xmlns:sodipodi="http://sodipodi.sourceforge.net/DTD/sodipodi-0.dtd"
   xmlns="http://www.w3.org/2000/svg"
   xmlns:svg="http://www.w3.org/2000/svg"><sodipodi:namedview
     id="namedview1"
     pagecolor="#ffffff"
     bordercolor="#000000"
     borderopacity="0.25"
     inkscape:showpageshadow="2"
     inkscape:pageopacity="0.0"
     inkscape:pagecheckerboard="0"
     inkscape:deskcolor="#d1d1d1"
     inkscape:document-units="mm"><inkscape:page
       x="0"
       y="0"
       width="152.50789"
       height="25.200626"
       id="page2"
       margin="0"
       bleed="0" /></sodipodi:namedview><defs
     id="defs1" /><g
     inkscape:label="Layer 1"
     inkscape:groupmode="layer"
     id="layer1"
     transform="translate(-22.656306,-113.60856)"><path
       style="fill:#1e5836"
       d="m 22.667002,138.67197 c -0.05163,-0.0771 0.08871,-0.60952 0.311856,-1.18324 0.223149,-0.57371 1.344901,-3.58516 2.492783,-6.6921 4.17963,-11.3129 6.250611,-16.79836 6.412572,-16.98513 0.168302,-0.19408 3.605674,-0.28776 3.805189,-0.1037 0.05195,0.0479 -0.300439,1.16436 -0.783086,2.48097 -1.656445,4.51861 -8.35378,22.34001 -8.448676,22.48166 -0.123233,0.18394 -3.667472,0.18538 -3.790638,0.002 z m 66.273201,0.0115 c 0,-0.1612 8.7802,-23.85825 9.18723,-24.7956 0.10099,-0.23256 0.36034,-0.26718 2.001537,-0.26718 1.71143,0 1.88551,0.0256 1.88551,0.27723 0,0.2123 -4.506897,12.40193 -8.901097,24.07448 l -0.28738,0.76337 -1.9429,0.043 c -1.08494,0.024 -1.9429,-0.0181 -1.9429,-0.0953 z m -50.934453,-3.1181 -1.859143,-1.71998 v -5.03839 -5.03838 l 1.896493,-1.7446 1.896494,-1.7446 3.345917,-0.0143 c 3.748443,-0.016 3.385488,-0.10883 4.980725,1.27389 0.339667,0.29442 0.661342,0.49493 0.714834,0.44559 0.05349,-0.0494 0.01383,-0.35405 -0.08813,-0.67712 -0.118629,-0.37588 -0.167457,-1.73997 -0.135594,-3.78807 l 0.0498,-3.20067 1.241229,-0.26253 c 0.682676,-0.14439 1.501887,-0.28428 1.820469,-0.31086 l 0.57924,-0.0483 0.0424,11.7997 0.0424,11.79971 -1.61462,-0.0437 -1.61462,-0.0437 -0.04668,-0.68704 c -0.08108,-1.19343 -0.131101,-1.20067 -1.246787,-0.18057 l -1.0324,0.94395 H 43.42133 39.864894 Z m 9.493817,-1.97447 c 1.223968,-1.0408 1.224824,-1.04426 1.224824,-4.94956 v -3.46822 l -1.048148,-0.96694 -1.048149,-0.96695 h -2.369728 -2.369727 l -0.88505,0.81648 -0.88505,0.81649 -0.02411,1.05379 c -0.01326,0.57958 -0.01781,2.31793 -0.01011,3.863 l 0.014,2.80921 0.713471,0.69822 c 0.392408,0.38401 0.787943,0.75053 0.878967,0.81448 0.09102,0.064 1.265648,0.11733 2.610278,0.11862 l 2.444781,0.002 z m 10.045471,1.96955 -1.869766,-1.7249 v -5.03347 -5.03346 l 1.906627,-1.75328 1.906628,-1.75327 4.258142,0.0495 4.258142,0.0495 1.864986,1.70626 1.864987,1.70627 -0.04452,2.97716 -0.04452,2.97717 -5.957898,0.0763 -5.957898,0.0763 -0.04701,1.46152 -0.04701,1.46151 0.930543,0.81189 0.930543,0.81188 2.426414,-0.10721 2.426414,-0.10721 0.639875,-0.5631 c 0.351932,-0.30971 0.743918,-0.78639 0.871081,-1.0593 l 0.231206,-0.49619 h 1.818248 1.818247 v 0.88037 0.88038 l -1.864432,1.7151 -1.864433,1.71511 H 63.70722 59.414806 Z m 10.170153,-8.72779 c 0.13354,-0.0467 0.206872,-0.39437 0.206872,-0.98085 0,-0.87948 -0.027,-0.93579 -0.844093,-1.76056 l -0.844092,-0.85202 h -2.419273 -2.419272 l -0.874064,0.79633 -0.874065,0.79633 v 1.0278 1.02779 l 0.86886,0.0461 c 1.236781,0.0657 6.951638,-0.0145 7.199127,-0.10097 z m 11.387168,9.96085 c -0.124331,-0.2753 -1.060327,-2.66471 -2.07999,-5.30981 -1.019664,-2.6451 -2.367262,-6.14047 -2.994663,-7.76749 -0.627401,-1.62701 -1.140728,-3.05262 -1.140728,-3.16801 0,-0.16623 0.410349,-0.2098 1.976198,-0.2098 1.08691,0 2.016156,0.0597 2.064991,0.13254 0.113662,0.16966 4.140206,11.63677 4.391316,12.50595 0.1991,0.68915 0.50434,0.74167 0.50434,0.0868 0,-0.37689 3.80562,-11.50742 4.19427,-12.26724 0.18988,-0.37123 0.24848,-0.38287 2.13791,-0.4247 1.68119,-0.0372 1.94268,-0.0105 1.94268,0.1986 0,0.23009 -0.93647,2.74475 -4.60434,12.36378 l -1.63008,4.27491 -2.26792,0.0425 -2.267928,0.0425 z m 27.672231,-0.84174 -1.44602,-1.34041 -0.0435,-5.6479 -0.0435,-5.64789 -1.36535,-0.0443 -1.36534,-0.0444 v -1.44424 -1.44424 h 1.3037 c 0.84533,0 1.36128,-0.0671 1.46743,-0.19084 0.0901,-0.10497 0.26136,-1.06855 0.38071,-2.14131 0.11984,-1.07725 0.30497,-2.01782 0.41352,-2.10092 0.27496,-0.21052 2.86934,-0.67414 3.0165,-0.53905 0.0664,0.061 0.158,1.18747 0.20351,2.50332 l 0.0828,2.39247 1.98597,0.0763 1.98596,0.0763 v 1.37408 1.37408 l -2.31696,0.0398 c -2.76674,0.0476 -2.98508,0.0956 -2.26629,0.49887 l 0.52857,0.29654 v 4.5801 4.58009 l 0.48227,0.4986 c 0.47363,0.48969 0.51286,0.49997 2.19283,0.57494 l 1.71058,0.0763 v 1.45042 1.45041 l -2.7307,0.0416 -2.73071,0.0416 z m 9.38515,1.14777 c -0.0447,-0.10773 -0.0619,-3.90588 -0.0383,-8.44033 l 0.043,-8.24447 h 1.65497 1.65497 l 0.0463,0.76338 c 0.0781,1.28797 0.11555,1.29234 1.35484,0.15782 l 1.13985,-1.04348 2.20497,-0.0152 2.20496,-0.0152 0.047,1.64125 0.047,1.64126 h -2.20362 -2.20362 l -0.9878,0.92073 -0.9878,0.92072 -0.0828,5.91149 -0.0827,5.9115 -1.86495,0.0432 c -1.39969,0.0324 -1.88522,-0.006 -1.94622,-0.15268 z m 14.20942,-1.56017 -1.87864,-1.746 0.0431,-6.68931 0.0431,-6.68932 h 1.90322 1.90322 l 0.0433,6.02807 0.0433,6.02807 0.94447,0.88049 0.94447,0.88048 h 1.91358 1.91358 l 0.94047,-0.87788 0.94046,-0.87788 0.012,-5.19096 c 0.007,-2.85503 0.0562,-5.58601 0.11009,-6.06884 l 0.0981,-0.87789 h 1.88324 1.88324 l -0.0428,8.43531 -0.0428,8.43531 h -1.57222 -1.57223 l -0.0467,-0.68704 c -0.08,-1.17726 -0.12649,-1.18364 -1.26654,-0.17372 l -1.05785,0.9371 h -3.10235 -3.10235 z m 20.09668,0.4124 -1.44602,-1.34041 -0.0435,-5.6479 -0.0435,-5.64789 -1.32397,-0.0763 -1.32398,-0.0763 -0.0476,-1.41225 -0.0476,-1.41225 h 1.30992 c 0.85112,0 1.36673,-0.0668 1.47211,-0.19084 0.0892,-0.10497 0.25855,-1.03358 0.37634,-2.06358 0.11779,-1.03001 0.29597,-1.97353 0.39595,-2.09672 0.20264,-0.24968 2.63325,-0.76008 3.00048,-0.63007 0.1859,0.0658 0.24399,0.58295 0.28014,2.49395 l 0.0456,2.41093 1.98597,0.0763 1.98597,0.0763 v 1.37408 1.37408 l -2.52384,0.0421 c -2.45495,0.041 -3.02651,0.17079 -2.13266,0.4843 0.21515,0.0755 0.43857,0.25114 0.4965,0.3904 0.0579,0.13926 0.10532,2.2389 0.10532,4.66588 v 4.41269 l 0.48226,0.4986 c 0.47363,0.48969 0.51286,0.49997 2.19283,0.57494 l 1.71058,0.0763 v 1.45042 1.45041 l -2.7307,0.0416 -2.73071,0.0416 z m 9.34747,-10.15523 0.0424,-11.48881 1.73772,-0.33361 c 0.95574,-0.18349 1.79728,-0.27969 1.87008,-0.21378 0.17466,0.15813 0.0717,7.64523 -0.10993,7.99031 -0.27484,0.52231 0.23476,0.26666 1.31292,-0.65863 l 1.07876,-0.92582 2.88659,0.0479 2.8866,0.0479 1.82287,1.67682 1.82288,1.67682 v 6.83483 6.83482 h -1.90322 -1.90322 v -6.13144 -6.13144 l -0.9665,-0.89162 -0.96651,-0.89163 h -1.78237 -1.78237 l -0.93343,0.78263 c -0.5134,0.43044 -1.03574,0.95774 -1.16077,1.17178 -0.18652,0.31928 -0.2089,1.39663 -0.12469,6.00029 0.0565,3.08612 0.0577,5.7192 0.003,5.85128 -0.0828,0.19898 -0.4233,0.24015 -1.98645,0.24015 h -1.88655 z"
       id="path8" /></g></svg>
