<?xml version="1.0" encoding="UTF-8" standalone="no"?>
<!-- Created with Inkscape (http://www.inkscape.org/) -->

<svg
   width="184.75795mm"
   height="202.84779mm"
   viewBox="0 0 184.75795 202.84779"
   version="1.1"
   id="svg1"
   xml:space="preserve"
   xmlns:inkscape="http://www.inkscape.org/namespaces/inkscape"
   xmlns:sodipodi="http://sodipodi.sourceforge.net/DTD/sodipodi-0.dtd"
   xmlns="http://www.w3.org/2000/svg"
   xmlns:svg="http://www.w3.org/2000/svg"><sodipodi:namedview
     id="namedview1"
     pagecolor="#ffffff"
     bordercolor="#000000"
     borderopacity="0.25"
     inkscape:showpageshadow="2"
     inkscape:pageopacity="0.0"
     inkscape:pagecheckerboard="0"
     inkscape:deskcolor="#d1d1d1"
     inkscape:document-units="mm"><inkscape:page
       x="0"
       y="0"
       width="184.75795"
       height="202.84779"
       id="page2"
       margin="0"
       bleed="0" /></sodipodi:namedview><defs
     id="defs1" /><g
     inkscape:label="Layer 1"
     inkscape:groupmode="layer"
     id="layer1"
     transform="translate(-9.9153971,-51.160348)"><path
       style="fill:#cd9c60"
       d="m 124.01025,253.54512 c 0.21613,-0.60911 11.54501,-19.67259 17.84609,-30.03021 0.77462,-1.2733 1.47347,-2.3151 1.55299,-2.3151 0.22597,0 14.55622,21.52665 14.5536,21.86217 -0.003,0.43345 0.37149,0.30554 -12.57004,4.2889 -2.32833,0.71665 -8.01571,2.50771 -12.63862,3.98013 -4.62291,1.47242 -8.51847,2.67713 -8.6568,2.67713 -0.13833,0 -0.17758,-0.20836 -0.0872,-0.46302 z m -6.98582,-5.15937 c -0.75521,-1.76188 -3.41215,-7.80789 -4.97064,-11.31094 -5.37216,-12.07516 -9.83898,-22.2598 -13.263548,-30.24178 -0.79913,-1.86262 -1.41129,-3.58903 -1.36036,-3.83646 0.10516,-0.51084 0.66428,-0.48936 2.0578,0.079 0.50933,0.20775 3.843078,1.40063 7.408338,2.65086 3.56526,1.25022 7.67291,2.70284 9.12812,3.22803 1.45521,0.52519 3.12208,1.10571 3.70417,1.29003 0.58208,0.18433 2.78474,0.9393 4.89479,1.67771 2.11005,0.73841 6.00893,2.08614 8.66418,2.99496 5.13261,1.75675 5.30645,1.88222 4.34801,3.13807 -0.26486,0.34705 -0.78064,1.16678 -1.14618,1.82162 -0.36554,0.65485 -2.36843,3.9886 -4.45086,7.40834 -2.08244,3.41974 -4.02651,6.63442 -4.32016,7.14375 -0.29365,0.50932 -1.27685,2.17619 -2.1849,3.70416 -0.90805,1.52797 -2.49367,4.20688 -3.52361,5.95313 -2.94779,4.99792 -3.72281,6.21771 -3.9506,6.21771 -0.11678,0 -0.58233,-0.86321 -1.03455,-1.91823 z m -68.767672,0.004 c 0.20517,-0.47499 1.02596,-2.23284 1.823978,-3.90633 0.798018,-1.67349 2.289783,-4.82864 3.315033,-7.01146 1.02525,-2.18281 2.945195,-6.20561 4.266545,-8.93957 1.32135,-2.73395 2.402454,-5.0379 2.402454,-5.11989 0,-0.082 1.115226,-2.48855 2.478281,-5.34793 1.363054,-2.85937 3.107205,-6.56807 3.87589,-8.24156 0.768685,-1.67349 2.510959,-5.35078 3.871719,-8.17176 1.360761,-2.82098 2.47411,-5.18959 2.47411,-5.26359 0,-0.074 1.177518,-2.58795 2.616706,-5.58657 1.439188,-2.99862 4.367387,-9.20251 6.507108,-13.78642 2.139721,-4.5839 5.002692,-10.65609 6.362158,-13.49375 1.359466,-2.83765 2.823395,-5.93328 3.253175,-6.87916 0.429781,-0.94589 1.671592,-3.6248 2.759581,-5.95313 1.087989,-2.32833 2.363898,-5.06677 2.835356,-6.08542 0.47145,-1.01864 1.78518,-3.81661 2.919378,-6.2177 1.13421,-2.4011 3.31568,-7.05288 4.84772,-10.33729 1.53204,-3.28441 3.61618,-7.64932 4.63142,-9.6998 1.01524,-2.05048 1.93102,-3.99634 2.03506,-4.32414 0.18985,-0.59814 3.30455,-7.26674 6.57623,-14.07975 0.96357,-2.00654 1.75194,-3.69899 1.75194,-3.76098 0,-0.062 0.69183,-1.51591 1.5374,-3.23091 0.84556,-1.715 2.32295,-4.84458 3.28308,-6.95464 0.96012,-2.11005 2.59845,-5.62239 3.64072,-7.8052 1.04228,-2.18282 2.28725,-4.80219 2.76662,-5.82084 0.47936,-1.01864 1.94542,-4.11427 3.2579,-6.87916 1.31248,-2.7649 3.07345,-6.51537 3.91327,-8.33438 0.83981,-1.81901 1.63102,-3.44279 1.75824,-3.6084 0.16306,-0.21226 2.61713,-0.31007 8.31734,-0.33148 4.44731,-0.0167 8.18474,0.0306 8.30539,0.1052 0.12066,0.0746 -0.94453,2.54546 -2.36708,5.49086 -1.42254,2.9454 -3.03375,6.30778 -3.58046,7.47195 -1.21234,2.58156 -5.23102,11.06122 -8.21313,17.3302 -1.21141,2.54662 -2.79356,5.88037 -3.51589,7.40834 -0.72233,1.52797 -1.99148,4.20687 -2.82033,5.95312 -0.82884,1.74625 -2.08507,4.42516 -2.79161,5.95313 -4.29405,9.28629 -6.73389,14.48618 -7.93715,16.91597 -0.75193,1.51842 -1.58177,3.30436 -1.84408,3.96875 -0.2623,0.66439 -1.29997,2.87486 -2.30593,4.91215 -1.00597,2.0373 -2.34862,4.8948 -2.98367,6.35 -0.63506,1.45521 -2.20637,4.83004 -3.49181,7.49963 -1.28543,2.66958 -2.33715,4.89219 -2.33715,4.93912 0,0.0828 -10.55708,22.43184 -13.621428,28.83625 -0.83554,1.74625 -2.468122,5.19907 -3.627955,7.67292 -1.159832,2.47385 -3.101189,6.58151 -4.314126,9.12813 -3.12761,6.56655 -10.436957,22.15589 -10.978845,23.41562 -0.434076,1.0091 -4.714069,10.06546 -6.877244,14.55208 -0.94913,1.96859 -2.343388,4.93108 -6.724221,14.2875 l -1.734352,3.70417 -8.345189,0.0699 -8.345188,0.0699 z m 55.596552,-10.54312 c -0.84652,-0.24794 -17.935939,-4.30952 -19.377695,-4.60542 -0.471274,-0.0967 -0.921334,-0.28018 -1.000133,-0.40768 -0.121896,-0.19723 2.991236,-7.25477 6.298813,-14.27955 0.513882,-1.09141 1.397258,-3.01178 1.963058,-4.2675 1.855506,-4.11803 1.419257,-4.41055 4.63587,3.10852 3.062229,7.15819 4.791747,11.16352 5.355997,12.40377 1.30664,2.87208 3.03724,7.00028 3.19035,7.6103 0.19456,0.77518 0.14952,0.79366 -1.06626,0.43756 z m 55.95993,-3.88067 c -1.50209,-2.29196 -3.68575,-5.59594 -4.85259,-7.34219 -1.16683,-1.74625 -3.06117,-4.58531 -4.20964,-6.30902 -1.14847,-1.7237 -2.02884,-3.28852 -1.95637,-3.47737 0.0725,-0.18885 1.95609,-0.95173 4.18584,-1.69529 3.46108,-1.15419 7.63331,-2.57452 19.32469,-6.57863 1.12279,-0.38454 2.1065,-0.63411 2.18602,-0.55459 0.0795,0.0795 -0.0796,0.66899 -0.35358,1.30995 -0.27398,0.64095 -1.16423,2.89177 -1.97832,5.00182 -0.81409,2.11005 -2.71176,6.99162 -4.21703,10.84792 -1.50528,3.8563 -3.25435,8.35091 -3.88681,9.98802 -0.63247,1.63711 -1.23121,2.97656 -1.33054,2.97656 -0.0993,0 -1.40958,-1.87523 -2.91167,-4.16718 z M 22.498728,211.51348 c 0.0026,-0.12955 0.377923,-0.89039 0.83397,-1.69075 0.456048,-0.80037 1.630475,-2.94349 2.609838,-4.7625 1.783767,-3.31307 5.174735,-9.47363 6.990477,-12.7 0.532327,-0.94589 2.278798,-4.10105 3.881048,-7.01146 1.602249,-2.91042 3.002332,-5.38283 3.111294,-5.49425 0.108963,-0.11142 1.430963,2.68655 2.937779,6.21771 1.506815,3.53116 3.503952,8.20622 4.438081,10.38904 0.934129,2.18281 2.148518,5.04031 2.698643,6.35 0.550124,1.30968 1.491967,3.48792 2.092985,4.84051 0.601017,1.3526 1.092758,2.55426 1.092758,2.67036 0,0.1161 -2.411015,0.29492 -5.357812,0.39739 -2.946797,0.10247 -7.322344,0.29994 -9.723438,0.43883 -7.234839,0.41848 -15.610791,0.60909 -15.605623,0.35512 z m 122.650092,-0.95665 c -0.0551,-0.18548 -0.34127,-1.17067 -0.63595,-2.18931 -0.29469,-1.01865 -1.02246,-3.51896 -1.61728,-5.55625 -0.59482,-2.03729 -1.2539,-4.29948 -1.46464,-5.02709 -0.21073,-0.7276 -1.11059,-3.76369 -1.99969,-6.74687 -0.88909,-2.98318 -2.0339,-6.85271 -2.54402,-8.59896 -0.51011,-1.74625 -1.20672,-4.06797 -1.54802,-5.15937 -0.90784,-2.90313 -3.55119,-11.64947 -4.71784,-15.61042 -0.36432,-1.23693 -1.04114,-3.49912 -1.50406,-5.02708 -0.46291,-1.52797 -0.93918,-3.13532 -1.05839,-3.57188 -0.11921,-0.43656 -0.76074,-2.63922 -1.42564,-4.89479 -0.6649,-2.25557 -1.2106,-4.33656 -1.21267,-4.6244 -0.002,-0.28785 1.02601,-2.6691 2.28464,-5.29167 1.25862,-2.62257 2.63913,-5.60174 3.06779,-6.62039 0.42866,-1.01865 0.93493,-2.01467 1.12505,-2.21338 0.41451,-0.43327 0.16427,-0.80009 3.85646,5.65296 1.49871,2.61938 3.96686,6.90563 5.4848,9.525 1.51793,2.61938 3.77248,6.54844 5.01012,8.73125 1.23764,2.18282 2.34194,4.08782 2.454,4.23334 0.11205,0.14552 1.57053,2.64583 3.24106,5.55625 1.67053,2.91041 3.66789,6.36323 4.43859,7.67291 1.58217,2.68865 7.04368,12.26906 9.04987,15.875 0.72865,1.30969 1.52987,2.67891 1.78047,3.04271 0.2506,0.3638 1.20519,1.97115 2.1213,3.57188 0.91612,1.60073 2.3093,4.02586 3.09596,5.38919 0.78666,1.36333 1.39481,2.50477 1.35144,2.53653 -0.17451,0.12778 -5.92072,2.10159 -10.5299,3.61699 -2.69214,0.88512 -5.54964,1.84401 -6.35,2.13086 -4.14609,1.48597 -10.27527,3.59195 -10.91988,3.75205 -0.4963,0.12327 -0.76579,0.0731 -0.83357,-0.15506 z m -10.20697,-1.81359 c -3.67329,-1.38804 -6.9858,-2.57477 -13.22917,-4.73945 -7.18139,-2.48991 -19.13996,-6.70052 -20.43906,-7.19659 -0.40018,-0.15281 -0.7276,-0.38648 -0.7276,-0.51926 0,-0.26929 3.1705,-7.16645 8.06915,-17.55376 1.78432,-3.78354 3.48645,-7.41494 3.78253,-8.06979 0.29607,-0.65484 1.78361,-3.86953 3.30564,-7.14375 1.52202,-3.27422 3.28164,-7.11398 3.91025,-8.53281 0.62861,-1.41883 1.21548,-2.57969 1.30416,-2.57969 0.22131,0 0.93176,2.04407 1.70125,4.89479 0.77628,2.87583 2.26853,7.95825 4.11727,14.02292 0.75413,2.47385 1.84532,6.10526 2.42487,8.06979 0.57956,1.96453 1.71553,5.77453 2.52439,8.46667 0.80885,2.69213 1.98029,6.6212 2.6032,8.73125 2.209,7.48279 3.01643,10.20245 3.41696,11.50937 0.46244,1.50892 0.48948,1.72566 0.21272,1.70495 -0.10914,-0.008 -1.44859,-0.48726 -2.97656,-1.06464 z M 17.238537,206.35843 c -0.140097,-0.35021 -0.503083,-1.76784 -0.806635,-3.15029 -1.058779,-4.82193 -2.475185,-11.51823 -2.686313,-12.7 -0.11699,-0.65484 -0.524875,-2.61937 -0.906415,-4.36562 -1.60208,-7.33258 -3.0343399,-14.51889 -2.9170399,-14.63619 0.0692,-0.0693 1.7058499,0.13583 3.6368789,0.45573 1.93103,0.31991 4.28487,0.6981 5.230755,0.84043 0.945886,0.14234 4.220104,0.66267 7.276042,1.15629 3.055937,0.49363 6.189799,0.9787 6.964137,1.07794 0.822258,0.10537 1.466808,0.33397 1.549537,0.54956 0.07791,0.20302 -0.549626,1.58967 -1.394519,3.08143 -3.466104,6.11986 -3.993081,7.05891 -5.092194,9.07409 -3.904517,7.15878 -7.726272,14.1202 -9.058317,16.49996 -1.422825,2.54194 -1.560757,2.7045 -1.795917,2.11667 z m 38.675865,-6.1325 c -1.045774,-2.50713 -2.260869,-5.39185 -2.700212,-6.4105 -0.439343,-1.01864 -1.626305,-3.81661 -2.637693,-6.2177 -1.011388,-2.4011 -2.37323,-5.61579 -3.026315,-7.14375 -0.653086,-1.52797 -1.607396,-3.79016 -2.12069,-5.02709 -1.054729,-2.54167 -4.733241,-11.20901 -11.902955,-28.04583 -2.695604,-6.33016 -5.96516,-14.00969 -7.26568,-17.06563 -1.30052,-3.05593 -2.936078,-6.8977 -3.634574,-8.53725 -0.698496,-1.63955 -1.222382,-3.02806 -1.164191,-3.08557 0.05819,-0.0575 0.760645,0.0505 1.561009,0.23999 5.650732,1.33795 25.895882,5.95888 26.106944,5.95888 0.220476,0 0.982583,2.06713 3.853067,10.45104 1.594351,4.65666 3.132561,9.12151 3.418246,9.92187 0.285684,0.80037 0.738625,2.11005 1.006536,2.91042 0.873861,2.6106 4.413863,12.75038 5.680839,16.27187 0.680628,1.89177 1.462174,4.09443 1.736769,4.8948 0.274594,0.80036 1.280294,3.71515 2.234889,6.47731 0.954595,2.76216 1.735627,5.21237 1.735627,5.4449 0,0.42089 -1.667061,4.13127 -5.817772,12.94862 -1.198802,2.54661 -2.568258,5.52318 -3.043235,6.61458 -0.474977,1.09141 -1.058407,2.43086 -1.296511,2.97656 -0.238104,0.54571 -0.520616,0.98965 -0.627803,0.98654 -0.107188,-0.003 -1.050521,-2.05693 -2.096295,-4.56406 z m 16.850366,-27.78499 c 0,-0.0416 -0.604604,-1.79772 -1.343564,-3.90261 -0.73896,-2.10488 -2.153983,-6.14878 -3.144495,-8.98644 -0.990512,-2.83765 -2.778716,-7.95734 -3.973785,-11.37708 -1.885686,-5.39597 -3.942666,-11.34048 -7.780719,-22.48568 -0.525444,-1.52583 -0.955354,-2.92823 -0.955354,-3.11647 0,-0.18823 0.670703,-1.55921 1.49045,-3.04661 0.819746,-1.4874 2.026956,-3.7164 2.682686,-4.95332 0.655731,-1.23693 1.934961,-3.55865 2.842733,-5.15938 0.907772,-1.60073 2.421984,-4.33917 3.364917,-6.08542 0.942933,-1.74625 2.724289,-5.02047 3.958569,-7.27604 1.23428,-2.25557 3.234417,-5.92706 4.44475,-8.15886 l 2.200604,-4.05783 0.323243,1.01512 c 0.177783,0.55831 0.524901,1.66996 0.771372,2.47032 0.611758,1.98656 6.597013,20.29071 10.899607,33.33327 1.943463,5.89126 3.533569,10.86315 3.533569,11.04864 0,0.18548 -0.909095,2.27098 -2.020211,4.63444 -1.111117,2.36346 -2.706086,5.78548 -3.544377,7.60449 -0.838291,1.81901 -2.501973,5.39088 -3.697072,7.9375 -1.195099,2.54661 -2.762506,5.93989 -3.483127,7.54062 -2.772676,6.159 -6.135272,13.09688 -6.347689,13.09688 -0.122159,0 -0.222107,-0.034 -0.222107,-0.0755 z m 89.979002,-3.6957 c -1.08003,-1.92764 -2.60858,-4.57637 -3.39677,-5.88606 -4.0344,-6.70374 -5.60797,-9.64205 -5.41761,-10.11626 0.28855,-0.71877 11.13757,-17.50488 12.20201,-18.87949 0.60318,-0.77896 -0.29896,-0.82364 8.10107,0.40126 2.61938,0.38196 5.715,0.86146 6.87917,1.06557 1.16417,0.20411 2.71198,0.44367 3.43958,0.53237 0.72761,0.0887 1.73964,0.22312 2.24896,0.29872 0.50933,0.0756 1.64042,0.22357 2.51354,0.32883 0.87313,0.10525 1.73665,0.28426 1.91895,0.3978 0.42028,0.26177 0.11933,0.86065 -1.366,2.71832 -1.55919,1.95003 -6.56525,8.51097 -7.46265,9.78053 -0.41977,0.59386 -3.50165,4.68711 -6.84863,9.09611 -3.34698,4.40901 -6.26401,8.27353 -6.48229,8.58783 -1.46632,2.11133 -3.95069,5.18148 -4.19183,5.1802 -0.0956,-5.1e-4 -1.05746,-1.57808 -2.1375,-3.50573 z M 32.41581,168.38047 c -2.003573,-0.40036 -5.572025,-0.97535 -12.832292,-2.0677 -6.149522,-0.92524 -7.672914,-1.22815 -7.672914,-1.52569 0,-0.13681 0.67201,-1.46 1.493364,-2.94041 3.956039,-7.13039 5.883071,-10.67306 9.298976,-17.0953 l 1.46906,-2.76198 0.339598,0.77761 c 0.186779,0.42768 2.260771,5.30198 4.60887,10.83177 2.3481,5.52979 4.662857,10.94713 5.143906,12.03854 1.307587,2.96666 1.349632,3.18103 0.616657,3.14412 -0.337228,-0.017 -1.446579,-0.19742 -2.465225,-0.40096 z M 148.3978,144.00762 c -0.81684,-1.41883 -2.2313,-3.88937 -3.14324,-5.4901 -0.91194,-1.60073 -2.19596,-3.80339 -2.85339,-4.89479 -0.65742,-1.09141 -2.05096,-3.47266 -3.09674,-5.29167 -1.04579,-1.81901 -2.3365,-4.04233 -2.86824,-4.94071 l -0.96681,-1.63342 0.82448,-1.80616 c 0.45347,-0.99339 1.71994,-3.71117 2.81439,-6.0395 1.09444,-2.32834 2.45852,-5.24537 3.03128,-6.48229 0.57276,-1.23693 1.88509,-4.06989 2.91628,-6.29548 1.03119,-2.22558 1.9559,-3.95198 2.05492,-3.83645 0.099,0.11553 0.44959,0.86489 0.77903,1.66526 0.71425,1.7352 2.54238,5.93612 5.18127,11.90625 1.06133,2.40109 2.60761,5.91344 3.4362,7.80521 0.82858,1.89177 2.22146,5.02232 3.0953,6.95679 0.87383,1.93446 1.53526,3.7204 1.46985,3.96875 -0.0654,0.24835 -1.04399,1.88029 -2.17462,3.62654 -5.13314,7.92812 -8.74084,13.36146 -8.87192,13.36146 -0.0786,0 -0.8112,-1.16086 -1.62804,-2.57969 z m 44.723,-13.41289 c -0.0647,-0.0647 -1.00725,-0.24202 -2.09462,-0.39412 -1.08737,-0.15209 -2.63188,-0.3909 -3.43225,-0.53068 -0.80036,-0.13978 -3.12208,-0.50408 -5.15937,-0.80955 -2.03729,-0.30546 -4.7162,-0.72072 -5.95313,-0.92278 -1.23692,-0.20206 -2.99331,-0.44604 -3.90308,-0.54216 -0.90976,-0.0961 -1.7177,-0.27767 -1.79542,-0.40341 -0.14631,-0.23674 0.82348,-2.29926 1.85232,-3.93946 0.32403,-0.51657 1.21877,-2.07031 1.98832,-3.45276 0.76954,-1.38245 1.90399,-3.40651 2.52099,-4.49792 0.61701,-1.0914 2.19229,-3.88937 3.50065,-6.21771 1.30835,-2.32833 3.18506,-5.66208 4.17048,-7.40833 0.98541,-1.74625 2.14804,-3.82984 2.58362,-4.63021 1.27374,-2.34044 1.39855,-2.38481 1.72689,-0.61392 0.15703,0.84698 0.34993,2.01621 0.42866,2.5983 0.27385,2.02467 3.08141,19.32751 3.45598,21.29896 0.20736,1.0914 0.44952,2.52015 0.53814,3.175 0.0886,0.65484 0.32587,2.08359 0.52724,3.175 0.80568,4.36662 0.80772,4.23333 -0.0649,4.23333 -0.4251,0 -0.82582,-0.0529 -0.89049,-0.11758 z M 93.459638,114.76696 c -4.10958,-12.48245 -5.097003,-15.64524 -4.980669,-15.95345 0.05835,-0.1546 1.695983,-1.15476 3.639177,-2.22257 1.943194,-1.06782 4.068862,-2.23815 4.723705,-2.60074 10.199029,-5.64725 17.210179,-9.39132 17.341069,-9.26043 0.0673,0.0673 -0.48662,1.36238 -1.23092,2.87797 -0.74429,1.51558 -1.50663,3.17233 -1.69408,3.68165 -0.18745,0.50932 -1.17621,2.65245 -2.19725,4.7625 -1.02104,2.11005 -3.01263,6.33677 -4.42575,9.39271 -6.438708,13.92393 -8.057652,17.44334 -8.057652,17.5164 0,0.0431 -0.0893,0.0765 -0.198437,0.0742 -0.109141,-0.002 -1.422778,-3.72302 -2.919193,-8.26823 z m 71.360172,6.64582 c -0.30793,-0.60359 -0.97741,-2.06211 -1.48774,-3.24115 -1.65535,-3.82445 -2.63119,-6.03634 -4.56437,-10.34578 -1.04448,-2.32833 -2.41903,-5.42396 -3.05458,-6.87917 -0.63554,-1.4552 -1.74916,-3.99282 -2.47471,-5.63915 -0.8496,-1.92782 -1.20928,-3.02698 -1.01047,-3.08787 0.35335,-0.10823 3.18727,-0.29125 10.36287,-0.66927 2.76489,-0.14566 6.81302,-0.38412 8.99583,-0.52992 2.18281,-0.14579 5.80609,-0.34282 8.05173,-0.43784 l 4.08298,-0.17276 -0.54223,0.90278 c -0.29824,0.49653 -0.99644,1.73622 -1.55156,2.75487 -0.55513,1.01864 -2.60694,4.65005 -4.55958,8.06979 -1.95264,3.41974 -4.14943,7.28927 -4.88176,8.59896 -0.73233,1.30968 -1.83349,3.27422 -2.44702,4.36562 -0.61354,1.09141 -1.8009,3.20477 -2.6386,4.69636 -0.83769,1.49158 -1.56759,2.71198 -1.622,2.71198 -0.0544,0 -0.35086,-0.49385 -0.65879,-1.09745 z M 45.90956,117.56161 c -5.767079,-1.35937 -12.866402,-2.99412 -18.785417,-4.3257 -4.074583,-0.91664 -7.449523,-1.6968 -7.499866,-1.73369 -0.174131,-0.1276 1.324464,-4.55691 6.704453,-19.81595 3.096404,-8.78221 5.158438,-14.66479 7.047101,-20.10402 1.009759,-2.90804 1.939151,-5.39057 2.065315,-5.51674 0.250049,-0.25005 0.404602,0.1649 0.673514,1.80826 0.09525,0.58208 0.57598,2.78474 1.06829,4.89479 0.492311,2.11005 1.307459,5.68192 1.811442,7.9375 0.503982,2.25557 1.280373,5.70838 1.725312,7.67291 0.44494,1.96454 1.059308,4.70297 1.365262,6.08542 0.305955,1.38245 1.017567,4.47807 1.58136,6.87917 0.563792,2.40109 1.584041,6.8064 2.267218,9.78958 0.683178,2.98318 1.341269,5.69185 1.462426,6.01927 0.188236,0.50871 0.134627,0.59085 -0.36848,0.56462 -0.32382,-0.0169 -0.826889,-0.0868 -1.11793,-0.15542 z m 7.177515,-4.58155 c -0.171412,-0.52162 -0.813326,-3.25286 -1.491203,-6.34483 -0.556242,-2.53717 -1.086607,-4.81946 -2.244184,-9.6573 -0.348197,-1.4552 -0.882981,-3.83645 -1.18841,-5.29166 -0.30543,-1.45521 -0.657426,-3.00302 -0.782214,-3.43959 -0.215837,-0.75509 -0.965873,-3.96134 -1.733026,-7.40833 -0.691062,-3.1051 -1.517296,-6.63394 -1.858467,-7.9375 -0.190429,-0.7276 -0.53227,-2.21589 -0.759645,-3.30729 -0.227376,-1.09141 -0.661118,-2.99641 -0.963873,-4.23334 -0.784999,-3.20717 -0.871822,-3.70416 -0.647106,-3.70416 0.194393,0 4.671142,2.24467 22.349988,11.20645 4.729427,2.39745 8.632533,4.52215 8.673568,4.72157 0.04104,0.19941 -0.777266,1.90617 -1.818448,3.7928 -1.041183,1.88662 -2.695997,4.9185 -3.677366,6.73751 -0.981369,1.81901 -3.006886,5.50995 -4.501148,8.20209 -1.494263,2.69213 -3.430273,6.20447 -4.302246,7.8052 -0.871973,1.60073 -2.124873,3.86221 -2.784223,5.0255 -0.65935,1.1633 -1.411321,2.58972 -1.671047,3.16984 -0.301388,0.67317 -0.518797,0.91304 -0.60095,0.66304 z M 83.54406,84.20807 c -1.724003,-5.25289 -2.581755,-8.26333 -2.580929,-9.05826 6.81e-4,-0.65485 0.234584,-2.44078 0.519785,-3.96875 0.285201,-1.52797 0.695557,-3.84969 0.911902,-5.15938 0.216345,-1.30968 0.646696,-3.75047 0.956336,-5.42396 0.30964,-1.67349 0.781675,-4.35239 1.048967,-5.95312 0.801075,-4.79738 0.07318,-4.95664 6.901229,1.50993 3.271809,3.0986 6.794192,6.40773 7.827522,7.35361 4.840638,4.431 14.381728,13.55491 14.381728,13.75289 0,0.22265 -1.43651,1.06714 -6.08542,3.57748 -1.38245,0.7465 -4.41854,2.40407 -6.74687,3.6835 -2.328338,1.27943 -5.48349,3.01282 -7.011459,3.85198 -5.01998,2.75697 -6.872552,3.7092 -7.208934,3.70544 -0.199562,-0.002 -1.360293,-3.13778 -2.913857,-7.87136 z M 69.774422,68.68682 c -2.590576,-1.35002 -4.849358,-2.5938 -5.019516,-2.76396 -0.236116,-0.23611 1.317749,-1.93741 6.561744,-7.18431 3.779117,-3.78122 6.916424,-6.73903 6.971792,-6.57293 0.05537,0.16611 -0.02518,0.91089 -0.178997,1.65508 -0.153818,0.74419 -0.418736,2.1865 -0.588707,3.20515 -0.169972,1.01865 -0.522843,2.98318 -0.784159,4.36562 -0.261315,1.38245 -0.620912,3.40651 -0.799103,4.49792 -0.178191,1.09141 -0.428501,2.40109 -0.556245,2.91042 -0.127744,0.50932 -0.232926,1.25346 -0.233737,1.65364 -8.43e-4,0.41556 -0.143318,0.7191 -0.332205,0.70778 -0.181901,-0.0109 -2.450291,-1.12439 -5.040867,-2.47441 z"
       id="path36" /></g></svg>
