<svg xmlns="http://www.w3.org/2000/svg" width="1600" height="900" viewBox="0 0 1600 900" fill="none">
  <defs>
    <linearGradient id="bg" x1="0" y1="0" x2="1600" y2="900" gradientUnits="userSpaceOnUse">
      <stop offset="0" stop-color="#0b1220"/>
      <stop offset="0.55" stop-color="#0a0f16"/>
      <stop offset="1" stop-color="#070b10"/>
    </linearGradient>
    <radialGradient id="orb" cx="0" cy="0" r="1" gradientUnits="userSpaceOnUse" gradientTransform="translate(1180 240) rotate(140) scale(520 520)">
      <stop stop-color="#22c55e" stop-opacity="0.30"/>
      <stop offset="1" stop-color="#22c55e" stop-opacity="0"/>
    </radialGradient>
  </defs>

  <rect width="1600" height="900" fill="url(#bg)"/>
  <rect width="1600" height="900" fill="url(#orb)"/>

  <rect x="70" y="80" width="1460" height="740" rx="40" fill="rgba(255,255,255,0.05)" stroke="rgba(255,255,255,0.18)"/>
  <rect x="70" y="80" width="1460" height="64" rx="40" fill="rgba(255,255,255,0.06)"/>

  <circle cx="114" cy="112" r="8" fill="rgba(255,255,255,0.22)"/>
  <circle cx="144" cy="112" r="8" fill="rgba(255,255,255,0.16)"/>
  <circle cx="174" cy="112" r="8" fill="rgba(255,255,255,0.14)"/>

  <text x="120" y="210" fill="rgba(255,255,255,0.96)" font-size="50" font-family="ui-serif, Georgia, Times, serif" font-weight="700">
    Voice Check-in (Gemini Live)
  </text>
  <text x="120" y="256" fill="rgba(255,255,255,0.78)" font-size="18" font-family="ui-monospace, SFMono-Regular, Menlo, Monaco, Consolas, Liberation Mono, monospace">
    Poster placeholder - replace with a real recording.
  </text>

  <rect x="120" y="310" width="520" height="430" rx="28" fill="rgba(0,0,0,0.26)" stroke="rgba(255,255,255,0.16)"/>
  <rect x="160" y="352" width="360" height="42" rx="14" fill="rgba(34,197,94,0.22)" stroke="rgba(34,197,94,0.40)"/>
  <rect x="160" y="420" width="420" height="16" rx="8" fill="rgba(255,255,255,0.10)"/>
  <rect x="160" y="452" width="380" height="16" rx="8" fill="rgba(255,255,255,0.08)"/>
  <rect x="160" y="500" width="420" height="16" rx="8" fill="rgba(255,255,255,0.08)"/>
  <rect x="160" y="532" width="280" height="16" rx="8" fill="rgba(255,255,255,0.08)"/>

  <rect x="670" y="310" width="860" height="430" rx="28" fill="rgba(0,0,0,0.22)" stroke="rgba(255,255,255,0.16)"/>
  <rect x="710" y="352" width="520" height="58" rx="18" fill="rgba(255,255,255,0.08)"/>
  <rect x="980" y="436" width="510" height="66" rx="18" fill="rgba(34,197,94,0.18)"/>
  <rect x="710" y="524" width="590" height="58" rx="18" fill="rgba(255,255,255,0.08)"/>
  <rect x="1060" y="610" width="430" height="58" rx="18" fill="rgba(34,197,94,0.14)"/>

  <rect x="670" y="760" width="860" height="60" rx="22" fill="rgba(255,255,255,0.05)" stroke="rgba(255,255,255,0.14)"/>
  <rect x="710" y="780" width="640" height="20" rx="10" fill="rgba(255,255,255,0.08)"/>
  <circle cx="1460" cy="790" r="18" fill="rgba(34,197,94,0.28)"/>
</svg>
