<svg xmlns="http://www.w3.org/2000/svg" width="1600" height="900" viewBox="0 0 1600 900" fill="none">
  <defs>
    <linearGradient id="bg" x1="0" y1="0" x2="1600" y2="900" gradientUnits="userSpaceOnUse">
      <stop offset="0" stop-color="#0a0f16"/>
      <stop offset="0.5" stop-color="#0b1220"/>
      <stop offset="1" stop-color="#070b10"/>
    </linearGradient>
    <radialGradient id="orb" cx="0" cy="0" r="1" gradientUnits="userSpaceOnUse" gradientTransform="translate(420 620) rotate(-10) scale(560 560)">
      <stop stop-color="#60a5fa" stop-opacity="0.28"/>
      <stop offset="1" stop-color="#60a5fa" stop-opacity="0"/>
    </radialGradient>
  </defs>

  <rect width="1600" height="900" fill="url(#bg)"/>
  <rect width="1600" height="900" fill="url(#orb)"/>

  <rect x="70" y="80" width="1460" height="740" rx="40" fill="rgba(255,255,255,0.05)" stroke="rgba(255,255,255,0.18)"/>
  <rect x="70" y="80" width="1460" height="64" rx="40" fill="rgba(255,255,255,0.06)"/>

  <text x="120" y="210" fill="rgba(255,255,255,0.96)" font-size="50" font-family="ui-serif, Georgia, Times, serif" font-weight="700">
    Client-side Acoustic Biomarkers
  </text>
  <text x="120" y="256" fill="rgba(255,255,255,0.78)" font-size="18" font-family="ui-monospace, SFMono-Regular, Menlo, Monaco, Consolas, Liberation Mono, monospace">
    Poster placeholder - show feature extraction UI/metrics.
  </text>

  <rect x="120" y="310" width="680" height="510" rx="28" fill="rgba(0,0,0,0.22)" stroke="rgba(255,255,255,0.16)"/>
  <rect x="160" y="352" width="340" height="18" rx="9" fill="rgba(255,255,255,0.14)"/>
  <rect x="160" y="392" width="600" height="140" rx="22" fill="rgba(255,255,255,0.06)"/>
  <path d="M190 500 C 280 440, 360 520, 460 470 C 560 420, 630 520, 730 460" stroke="rgba(96,165,250,0.78)" stroke-width="6" fill="none" stroke-linecap="round"/>
  <path d="M190 520 C 280 500, 360 540, 460 520 C 560 500, 630 560, 730 540" stroke="rgba(34,197,94,0.70)" stroke-width="6" fill="none" stroke-linecap="round"/>

  <rect x="160" y="560" width="220" height="90" rx="22" fill="rgba(255,255,255,0.05)" stroke="rgba(255,255,255,0.12)"/>
  <rect x="400" y="560" width="220" height="90" rx="22" fill="rgba(255,255,255,0.05)" stroke="rgba(255,255,255,0.12)"/>
  <rect x="640" y="560" width="120" height="90" rx="22" fill="rgba(96,165,250,0.16)" stroke="rgba(96,165,250,0.26)"/>

  <rect x="840" y="310" width="690" height="510" rx="28" fill="rgba(0,0,0,0.20)" stroke="rgba(255,255,255,0.16)"/>
  <rect x="880" y="352" width="420" height="18" rx="9" fill="rgba(255,255,255,0.14)"/>
  <rect x="880" y="392" width="610" height="16" rx="8" fill="rgba(255,255,255,0.08)"/>
  <rect x="880" y="422" width="560" height="16" rx="8" fill="rgba(255,255,255,0.08)"/>
  <rect x="880" y="452" width="520" height="16" rx="8" fill="rgba(255,255,255,0.08)"/>
  <rect x="880" y="500" width="610" height="220" rx="22" fill="rgba(255,255,255,0.05)"/>
  <rect x="910" y="532" width="360" height="16" rx="8" fill="rgba(255,255,255,0.08)"/>
  <rect x="910" y="564" width="420" height="16" rx="8" fill="rgba(255,255,255,0.08)"/>
  <rect x="910" y="596" width="480" height="16" rx="8" fill="rgba(255,255,255,0.08)"/>
</svg>
