<svg xmlns="http://www.w3.org/2000/svg" width="1600" height="900" viewBox="0 0 1600 900" fill="none">
  <defs>
    <linearGradient id="bg" x1="0" y1="0" x2="1600" y2="900" gradientUnits="userSpaceOnUse">
      <stop offset="0" stop-color="#081122"/>
      <stop offset="0.55" stop-color="#0b0f16"/>
      <stop offset="1" stop-color="#070b10"/>
    </linearGradient>
    <radialGradient id="orb" cx="0" cy="0" r="1" gradientUnits="userSpaceOnUse" gradientTransform="translate(1180 600) rotate(200) scale(520 520)">
      <stop stop-color="#22c55e" stop-opacity="0.18"/>
      <stop offset="1" stop-color="#22c55e" stop-opacity="0"/>
    </radialGradient>
    <radialGradient id="orb2" cx="0" cy="0" r="1" gradientUnits="userSpaceOnUse" gradientTransform="translate(460 260) rotate(110) scale(520 520)">
      <stop stop-color="#60a5fa" stop-opacity="0.22"/>
      <stop offset="1" stop-color="#60a5fa" stop-opacity="0"/>
    </radialGradient>
  </defs>

  <rect width="1600" height="900" fill="url(#bg)"/>
  <rect width="1600" height="900" fill="url(#orb)"/>
  <rect width="1600" height="900" fill="url(#orb2)"/>

  <rect x="70" y="80" width="1460" height="740" rx="40" fill="rgba(255,255,255,0.05)" stroke="rgba(255,255,255,0.18)"/>
  <rect x="70" y="80" width="1460" height="64" rx="40" fill="rgba(255,255,255,0.06)"/>

  <text x="120" y="210" fill="rgba(255,255,255,0.96)" font-size="50" font-family="ui-serif, Georgia, Times, serif" font-weight="700">
    Insights + Journal Synthesis
  </text>
  <text x="120" y="256" fill="rgba(255,255,255,0.78)" font-size="18" font-family="ui-monospace, SFMono-Regular, Menlo, Monaco, Consolas, Liberation Mono, monospace">
    Poster placeholder - replace with insight + journal output.
  </text>

  <rect x="120" y="310" width="700" height="250" rx="28" fill="rgba(0,0,0,0.22)" stroke="rgba(255,255,255,0.16)"/>
  <rect x="160" y="352" width="280" height="18" rx="9" fill="rgba(255,255,255,0.14)"/>
  <rect x="160" y="392" width="600" height="16" rx="8" fill="rgba(255,255,255,0.08)"/>
  <rect x="160" y="422" width="560" height="16" rx="8" fill="rgba(255,255,255,0.08)"/>
  <rect x="160" y="452" width="520" height="16" rx="8" fill="rgba(255,255,255,0.08)"/>
  <rect x="160" y="492" width="220" height="24" rx="12" fill="rgba(34,197,94,0.18)" stroke="rgba(34,197,94,0.32)"/>

  <rect x="120" y="580" width="700" height="240" rx="28" fill="rgba(0,0,0,0.20)" stroke="rgba(255,255,255,0.16)"/>
  <rect x="160" y="622" width="340" height="18" rx="9" fill="rgba(255,255,255,0.14)"/>
  <rect x="160" y="662" width="600" height="16" rx="8" fill="rgba(255,255,255,0.08)"/>
  <rect x="160" y="692" width="560" height="16" rx="8" fill="rgba(255,255,255,0.08)"/>
  <rect x="160" y="722" width="520" height="16" rx="8" fill="rgba(255,255,255,0.08)"/>
  <rect x="160" y="752" width="420" height="16" rx="8" fill="rgba(255,255,255,0.08)"/>

  <rect x="860" y="310" width="670" height="510" rx="28" fill="rgba(255,255,255,0.04)" stroke="rgba(255,255,255,0.16)"/>
  <rect x="900" y="352" width="260" height="18" rx="9" fill="rgba(255,255,255,0.14)"/>
  <rect x="900" y="400" width="590" height="100" rx="18" fill="rgba(0,0,0,0.16)"/>
  <rect x="930" y="432" width="520" height="14" rx="7" fill="rgba(255,255,255,0.08)"/>
  <rect x="930" y="458" width="470" height="14" rx="7" fill="rgba(255,255,255,0.08)"/>
  <rect x="900" y="520" width="590" height="100" rx="18" fill="rgba(0,0,0,0.14)"/>
  <rect x="930" y="552" width="500" height="14" rx="7" fill="rgba(255,255,255,0.08)"/>
  <rect x="930" y="578" width="430" height="14" rx="7" fill="rgba(255,255,255,0.08)"/>
  <rect x="900" y="640" width="590" height="100" rx="18" fill="rgba(0,0,0,0.12)"/>
  <rect x="930" y="672" width="540" height="14" rx="7" fill="rgba(255,255,255,0.08)"/>
  <rect x="930" y="698" width="440" height="14" rx="7" fill="rgba(255,255,255,0.08)"/>
</svg>
