<svg xmlns="http://www.w3.org/2000/svg" width="1600" height="900" viewBox="0 0 1600 900" fill="none">
  <defs>
    <linearGradient id="bg" x1="0" y1="0" x2="1600" y2="900" gradientUnits="userSpaceOnUse">
      <stop offset="0" stop-color="#0b1220"/>
      <stop offset="0.55" stop-color="#0a0f16"/>
      <stop offset="1" stop-color="#070b10"/>
    </linearGradient>
    <radialGradient id="orb" cx="0" cy="0" r="1" gradientUnits="userSpaceOnUse" gradientTransform="translate(1220 260) rotate(140) scale(520 520)">
      <stop stop-color="#60a5fa" stop-opacity="0.24"/>
      <stop offset="1" stop-color="#60a5fa" stop-opacity="0"/>
    </radialGradient>
  </defs>

  <rect width="1600" height="900" fill="url(#bg)"/>
  <rect width="1600" height="900" fill="url(#orb)"/>

  <rect x="70" y="80" width="1460" height="740" rx="40" fill="rgba(255,255,255,0.05)" stroke="rgba(255,255,255,0.18)"/>
  <rect x="70" y="80" width="1460" height="64" rx="40" fill="rgba(255,255,255,0.06)"/>

  <text x="120" y="210" fill="rgba(255,255,255,0.96)" font-size="50" font-family="ui-serif, Georgia, Times, serif" font-weight="700">
    Check-in History Timeline
  </text>
  <text x="120" y="256" fill="rgba(255,255,255,0.78)" font-size="18" font-family="ui-monospace, SFMono-Regular, Menlo, Monaco, Consolas, Liberation Mono, monospace">
    Poster placeholder - replace with history sidebar + detail view.
  </text>

  <rect x="120" y="310" width="420" height="510" rx="28" fill="rgba(0,0,0,0.22)" stroke="rgba(255,255,255,0.16)"/>
  <rect x="160" y="352" width="320" height="44" rx="14" fill="rgba(96,165,250,0.18)" stroke="rgba(96,165,250,0.30)"/>
  <rect x="160" y="416" width="260" height="14" rx="7" fill="rgba(255,255,255,0.10)"/>
  <rect x="160" y="446" width="320" height="14" rx="7" fill="rgba(255,255,255,0.08)"/>
  <rect x="160" y="496" width="300" height="14" rx="7" fill="rgba(255,255,255,0.08)"/>
  <rect x="160" y="526" width="240" height="14" rx="7" fill="rgba(255,255,255,0.08)"/>
  <rect x="160" y="576" width="320" height="14" rx="7" fill="rgba(255,255,255,0.08)"/>
  <rect x="160" y="606" width="210" height="14" rx="7" fill="rgba(255,255,255,0.08)"/>

  <rect x="570" y="310" width="960" height="510" rx="28" fill="rgba(0,0,0,0.18)" stroke="rgba(255,255,255,0.16)"/>
  <rect x="610" y="352" width="420" height="18" rx="9" fill="rgba(255,255,255,0.14)"/>
  <rect x="610" y="392" width="860" height="16" rx="8" fill="rgba(255,255,255,0.08)"/>
  <rect x="610" y="422" width="780" height="16" rx="8" fill="rgba(255,255,255,0.08)"/>
  <rect x="610" y="470" width="900" height="220" rx="22" fill="rgba(255,255,255,0.05)"/>
  <rect x="640" y="504" width="560" height="14" rx="7" fill="rgba(255,255,255,0.08)"/>
  <rect x="640" y="532" width="640" height="14" rx="7" fill="rgba(255,255,255,0.08)"/>
  <rect x="640" y="560" width="520" height="14" rx="7" fill="rgba(255,255,255,0.08)"/>
</svg>
