<svg xmlns="http://www.w3.org/2000/svg" width="1600" height="900" viewBox="0 0 1600 900" fill="none">
  <defs>
    <linearGradient id="bg" x1="0" y1="0" x2="1600" y2="900" gradientUnits="userSpaceOnUse">
      <stop offset="0" stop-color="#0a0f16"/>
      <stop offset="0.55" stop-color="#0b1220"/>
      <stop offset="1" stop-color="#070b10"/>
    </linearGradient>
    <radialGradient id="orb" cx="0" cy="0" r="1" gradientUnits="userSpaceOnUse" gradientTransform="translate(1220 300) rotate(150) scale(540 540)">
      <stop stop-color="#22c55e" stop-opacity="0.20"/>
      <stop offset="1" stop-color="#22c55e" stop-opacity="0"/>
    </radialGradient>
    <radialGradient id="orb2" cx="0" cy="0" r="1" gradientUnits="userSpaceOnUse" gradientTransform="translate(460 700) rotate(-20) scale(520 520)">
      <stop stop-color="#f59e0b" stop-opacity="0.16"/>
      <stop offset="1" stop-color="#f59e0b" stop-opacity="0"/>
    </radialGradient>
  </defs>

  <rect width="1600" height="900" fill="url(#bg)"/>
  <rect width="1600" height="900" fill="url(#orb)"/>
  <rect width="1600" height="900" fill="url(#orb2)"/>

  <rect x="70" y="80" width="1460" height="740" rx="40" fill="rgba(255,255,255,0.05)" stroke="rgba(255,255,255,0.18)"/>
  <rect x="70" y="80" width="1460" height="64" rx="40" fill="rgba(255,255,255,0.06)"/>

  <text x="120" y="210" fill="rgba(255,255,255,0.96)" font-size="50" font-family="ui-serif, Georgia, Times, serif" font-weight="700">
    Achievements + Streaks
  </text>
  <text x="120" y="256" fill="rgba(255,255,255,0.78)" font-size="18" font-family="ui-monospace, SFMono-Regular, Menlo, Monaco, Consolas, Liberation Mono, monospace">
    Poster placeholder - replace with achievements dashboard.
  </text>

  <rect x="120" y="310" width="980" height="510" rx="28" fill="rgba(0,0,0,0.18)" stroke="rgba(255,255,255,0.16)"/>
  <rect x="160" y="352" width="360" height="18" rx="9" fill="rgba(255,255,255,0.14)"/>
  <rect x="160" y="392" width="900" height="16" rx="8" fill="rgba(255,255,255,0.08)"/>
  <rect x="160" y="434" width="900" height="12" rx="6" fill="rgba(255,255,255,0.06)"/>
  <rect x="160" y="470" width="420" height="110" rx="22" fill="rgba(34,197,94,0.16)" stroke="rgba(34,197,94,0.26)"/>
  <rect x="600" y="470" width="460" height="110" rx="22" fill="rgba(255,255,255,0.06)" stroke="rgba(255,255,255,0.12)"/>
  <rect x="160" y="600" width="420" height="110" rx="22" fill="rgba(245,158,11,0.14)" stroke="rgba(245,158,11,0.22)"/>
  <rect x="600" y="600" width="460" height="110" rx="22" fill="rgba(96,165,250,0.14)" stroke="rgba(96,165,250,0.22)"/>

  <rect x="1140" y="310" width="390" height="510" rx="28" fill="rgba(0,0,0,0.16)" stroke="rgba(255,255,255,0.16)"/>
  <rect x="1180" y="352" width="260" height="18" rx="9" fill="rgba(255,255,255,0.14)"/>
  <rect x="1180" y="392" width="320" height="90" rx="22" fill="rgba(255,255,255,0.06)"/>
  <rect x="1180" y="500" width="320" height="90" rx="22" fill="rgba(255,255,255,0.06)"/>
  <rect x="1180" y="608" width="320" height="90" rx="22" fill="rgba(255,255,255,0.06)"/>
</svg>
